<svg xmlns="http://www.w3.org/2000/svg" version="1.1" xmlns:xlink="http://www.w3.org/1999/xlink"
    xmlns:svgjs="http://svgjs.dev/svgjs" width="2000" height="2250" viewBox="0 0 2000 2250">
    <g transform="matrix(1,0,0,1,3.410605131648481e-13,0)">
        <svg viewBox="0 0 320 360" data-background-color="#ffffff"
            preserveAspectRatio="xMidYMid meet" height="2250" width="2000"
            xmlns="http://www.w3.org/2000/svg" xmlns:xlink="http://www.w3.org/1999/xlink">
            <g id="tight-bounds" transform="matrix(1,0,0,1,0,0)">
                <svg viewBox="0 0 320 360" height="360" width="320">
                    <g>
                        <svg></svg>
                    </g>
                    <g>
                        <svg viewBox="0 0 320 360" height="360" width="320">
                            <g>
                                <path xmlns="http://www.w3.org/2000/svg"
                                    d="M20.961 227.22l3.726 4.658-1.863-6.056c-0.466-2.795-3.726 0.466-1.863 1.398M25.153 224.425c1.397 2.329 2.795 4.658 2.795 6.987 0 3.261 2.795 4.658 5.123 5.589-3.261-3.726-5.124-13.974-7.918-12.576M204.017 26.929c7.918 0 15.371-0.932 23.756 0.931 20.495 5.124 37.729 15.371 49.374 29.811l32.606 52.169c1.397 13.042 4.192 27.482 3.726 43.319 3.261 0 2.795-4.658 6.521-5.59-3.726 9.316-5.59 20.961-6.521 34.469-2.329-7.453 0-18.632 0.466-24.687-3.261 5.124-5.124 1.397-5.124-0.932 0.466-3.726-1.397-3.261-2.795-4.658-5.124-4.658-8.384-9.782-12.11-17.7 2.329-6.055 2.795-14.905-4.658-19.563-2.329-1.397-5.124-3.726-6.521-7.453-1.863-5.124-5.124-11.179-4.193-19.097 0.466-2.329-6.987 5.124-11.179 1.863-18.166-12.576-36.332-27.016-58.224-39.127-11.645 0-20.029-4.192-24.221-9.316-3.726-4.658-0.932-10.713 4.658-11.179 3.261 0 6.987-0.932 9.782 0.932 0.466-1.863 2.329-4.192 4.657-4.192M157.904 16.215l0.932 0.466c4.658 0.932 6.987 7.453 12.11 5.124 0 3.261 0.466 6.521-0.466 8.85-1.397 3.726-5.59 3.726-8.85 3.726-31.208-1.863-49.374 11.179-68.471 22.358-5.124 3.261-10.713 5.59-14.906 9.782-20.029 18.632-41.921 35.866-47.045 70.335l-4.192 38.195c-0.466 4.192-5.124 8.384-4.192 13.508l3.26 22.824c-3.261-3.261-5.124 0.932-4.192 2.795 0.466 1.397 2.329 6.055 5.124 1.863 3.726 6.987 7.453 20.495 12.576 26.55 15.837 18.632 36.332 35.4 53.101 52.169 4.192-0.932 7.453-0.932 8.384-3.727 1.397 2.795-1.397 5.59-3.726 6.056 7.453 4.658 15.837 8.85 27.016 9.781 14.44 0.932 27.948 3.261 40.524 6.522 6.521-1.863 13.042-2.795 20.029-3.261 2.329 0 3.726-3.726 6.521-4.658l0.466-4.658c2.795 4.192 2.329-1.397 0.466-4.192 3.261 2.795 4.192 5.124 5.589 6.987 0-1.397 3.726-6.521 3.727-0.466l0.931-6.055c1.397-0.932 1.863 5.124 3.261 0.931 1.397-4.192 4.192-0.932 6.987-2.329-0.932 1.863-0.466 5.59 2.794 3.261l3.727-3.261c2.329 5.59 6.055 3.261 7.918 2.329 20.495-13.042 40.99-28.413 60.553-43.784l-0.466 6.055 2.329-7.453c2.329 2.329 4.192 0.466 5.124-0.931 2.795-4.658 6.521-9.316 12.577-13.508-7.453 20.029-16.303 35.866-27.482 48.908l-4.658 5.59c0 3.261-0.932 7.453-4.658 7.918-1.863 0.466-5.59-0.932-8.384 1.863-1.397 1.863 3.261 5.59-0.466 2.795-3.261-2.329-6.521 0-10.248 0.932-2.795 0.932 1.863 3.726 2.795 5.589 0.932 1.863 1.863 3.726 1.398 6.056l-5.124-5.59c-6.055 3.261-9.782 9.316-14.906 13.974-2.329 1.863-1.397 5.124-1.397 7.918-3.261 0-6.987-0.932-8.85 0.932-1.397 1.863-0.932 4.658-0.932 7.453-4.658-0.466-5.124-7.453-9.315-6.056-4.192 0.932-8.85 1.397-12.577 3.727 2.795 5.59-4.658 2.329-3.726 3.26-6.987-4.192-13.042-7.453-20.495-4.658-15.837-5.124-35.4-2.795-49.84-0.931 0-2.329 0.466-4.658-0.466-5.124-0.932 2.329-3.726 1.397-3.26 1.397-8.85-6.055-17.7-9.782-27.016-14.905-8.384 0.932-16.303-3.261-18.632-5.59-6.521-6.055-13.974-2.795-20.029-4.192-13.042-3.261-17.7-16.769-19.098-26.084-0.932-4.658-4.658-6.521-6.055-6.056-6.055-19.563-15.371-37.263-22.824-55.429-1.863-4.658-1.397-9.316-1.397-14.44 2.329 0.932 4.658 0.466 4.192-2.794-2.329-15.371-7.918-27.016-13.974-38.195 3.261-15.837 3.726-34.469 11.179-48.443 6.521-12.576 18.632-19.098 27.016-29.811 2.795-3.726 2.795-8.85 5.59-12.11 9.316-9.316 18.632-19.098 28.879-27.482 4.658-3.726 10.247 0 17.234-1.397 2.329-8.384 11.645-15.837 20.495-13.508 3.726 0.932 11.179-8.85 13.508-9.782 3.726-1.397 1.863 3.726 1.863 6.987 8.85-6.987 20.961-10.713 32.14-14.906"
                                    fill="#ca3433" fill-rule="nonzero" stroke="none"
                                    stroke-width="1" stroke-linecap="butt" stroke-linejoin="miter"
                                    stroke-miterlimit="10" stroke-dasharray="" stroke-dashoffset="0"
                                    font-family="none" font-weight="none" font-size="none"
                                    text-anchor="none" style="mix-blend-mode: normal"
                                    data-fill-palette-color="tertiary"></path>
                            </g>
                            <g transform="matrix(1,0,0,1,64,145.5520504731861)">
                                <svg viewBox="0 0 192 68.89589905362776" height="68.89589905362776"
                                    width="192">
                                    <g>
                                        <svg viewBox="0 0 192 68.89589905362776"
                                            height="68.89589905362776" width="192">
                                            <g>
                                                <svg viewBox="0 0 192 68.89589905362776"
                                                    height="68.89589905362776" width="192">
                                                    <g>
                                                        <svg viewBox="0 0 192 68.89589905362776"
                                                            height="68.89589905362776" width="192">
                                                            <g>
                                                                <svg
                                                                    viewBox="0 0 192 68.89589905362776"
                                                                    height="68.89589905362776"
                                                                    width="192">
                                                                    <g>
                                                                        <svg
                                                                            viewBox="0 0 192 68.89589905362776"
                                                                            height="68.89589905362776"
                                                                            width="192">
                                                                            <g
                                                                                transform="matrix(1,0,0,1,0,0)">
                                                                                <svg width="192"
                                                                                    viewBox="1.7000000476837158 -34.900001525878906 126.79000854492188 45.5"
                                                                                    height="68.89589905362776"
                                                                                    data-palette-color="#ca3433">
                                                                                    <path
                                                                                        d="M25-4.65L25 0 1.7 0 1.7-4.75 18.45-30.25 2.5-30.25 2.5-34.9 24.45-34.9 24.45-30.15 7.7-4.65 25-4.65ZM44.1 0L44.1-4.3 43.45-4.3Q41.9 0.6 37 0.6L37 0.6Q33.55 0.6 31.62-1.78 29.7-4.15 29.7-8.75L29.7-8.75 29.7-26 34.85-26 34.85-9.45Q34.85-3.8 39.25-3.8L39.25-3.8Q41.25-3.8 42.67-5.03 44.1-6.25 44.1-8.45L44.1-8.45 44.1-26 49.25-26 49.25 0 44.1 0ZM65.4 0.6L65.4 0.6Q62.9 0.6 60.92-0.2 58.95-1 57.52-2.65 56.1-4.3 55.35-6.88 54.6-9.45 54.6-13L54.6-13Q54.6-16.55 55.35-19.13 56.1-21.7 57.52-23.35 58.95-25 60.92-25.8 62.9-26.6 65.4-26.6L65.4-26.6Q67.84-26.6 69.84-25.8 71.84-25 73.27-23.35 74.7-21.7 75.45-19.13 76.2-16.55 76.2-13L76.2-13Q76.2-9.45 75.45-6.88 74.7-4.3 73.27-2.65 71.84-1 69.84-0.2 67.84 0.6 65.4 0.6ZM65.4-3.7L65.4-3.7Q68-3.7 69.37-5.25 70.75-6.8 70.75-9.95L70.75-9.95 70.75-16.05Q70.75-19.2 69.37-20.75 68-22.3 65.4-22.3L65.4-22.3Q62.8-22.3 61.42-20.75 60.05-19.2 60.05-16.05L60.05-16.05 60.05-9.95Q60.05-6.8 61.42-5.25 62.8-3.7 65.4-3.7ZM86.69 0L81.54 0 81.54-26 86.69-26 86.69-21.7 87.29-21.7Q88.84-26.6 93.69-26.6L93.69-26.6Q97.19-26.6 99.12-24.23 101.04-21.85 101.04-17.25L101.04-17.25 101.04 0 95.89 0 95.89-16.55Q95.89-19.3 94.84-20.75 93.79-22.2 91.54-22.2L91.54-22.2Q89.49-22.2 88.09-20.98 86.69-19.75 86.69-17.55L86.69-17.55 86.69 0ZM128.49 2.55L128.49 2.55Q128.49 4.6 127.84 6.1 127.19 7.6 125.74 8.6 124.29 9.6 122.02 10.1 119.74 10.6 116.44 10.6L116.44 10.6Q113.49 10.6 111.44 10.18 109.39 9.75 108.12 8.95 106.84 8.15 106.29 6.98 105.74 5.8 105.74 4.3L105.74 4.3Q105.74 2.3 106.82 1.13 107.89-0.05 109.79-0.35L109.79-0.35 109.79-1.2Q108.39-1.7 107.72-2.7 107.04-3.7 107.04-5.1L107.04-5.1Q107.04-6.85 108.17-7.93 109.29-9 111.19-9.3L111.19-9.3 111.19-9.9Q106.99-12.05 106.99-17.7L106.99-17.7Q106.99-22 109.37-24.3 111.74-26.6 116.44-26.6L116.44-26.6Q118.74-26.6 120.64-25.85L120.64-25.85 120.64-26.7Q120.64-29.95 123.74-29.95L123.74-29.95 127.34-29.95 127.34-25.8 122.54-25.8 122.54-24.65Q124.14-23.65 125.02-21.88 125.89-20.1 125.89-17.7L125.89-17.7Q125.89-13.4 123.52-11.13 121.14-8.85 116.44-8.85L116.44-8.85Q115.54-8.85 114.72-8.95 113.89-9.05 113.14-9.2L113.14-9.2Q112.14-8.9 111.64-8.18 111.14-7.45 111.14-6.6L111.14-6.6Q111.14-5.6 111.82-5.1 112.49-4.6 114.04-4.6L114.04-4.6 120.29-4.6Q124.74-4.6 126.62-2.75 128.49-0.9 128.49 2.55ZM123.64 3.05L123.64 3.05Q123.64 1.6 122.69 0.8 121.74 0 119.49 0L119.49 0 111.49 0Q109.99 1.05 109.99 3.1L109.99 3.1Q109.99 4.85 111.12 5.83 112.24 6.8 114.94 6.8L114.94 6.8 118.04 6.8Q120.99 6.8 122.32 5.88 123.64 4.95 123.64 3.05ZM116.44-12.6L116.44-12.6Q120.89-12.6 120.89-17L120.89-17 120.89-18.5Q120.89-22.9 116.44-22.9L116.44-22.9Q111.99-22.9 111.99-18.5L111.99-18.5 111.99-17Q111.99-12.6 116.44-12.6Z"
                                                                                        opacity="1"
                                                                                        transform="matrix(1,0,0,1,0,0)"
                                                                                        fill="#ca3433"
                                                                                        class="undefined-text-0"
                                                                                        data-fill-palette-color="primary"
                                                                                        id="text-0"></path>
                                                                                </svg>
                                                                            </g>
                                                                        </svg>
                                                                    </g>
                                                                </svg>
                                                            </g>
                                                        </svg>
                                                    </g>
                                                    <g></g>
                                                </svg>
                                            </g>
                                        </svg>
                                    </g>
                                </svg>
                            </g>
                        </svg>
                    </g>
                    <defs></defs>
                </svg>
                <rect width="320" height="360" fill="none" stroke="none" visibility="hidden"></rect>
            </g>
        </svg>
    </g>
</svg>